<?xml version="1.0" encoding="utf-8"?>
<!-- Generator: Adobe Illustrator 26.0.2, SVG Export Plug-In . SVG Version: 6.00 Build 0)  -->
<svg version="1.1" id="Layer_1" xmlns="http://www.w3.org/2000/svg" xmlns:xlink="http://www.w3.org/1999/xlink" x="0px" y="0px"
	 viewBox="0 0 1080 1350" style="enable-background:new 0 0 1080 1350;" xml:space="preserve">
<style type="text/css">
	.st0{fill:#1C75BC;}
	.st1{font-family:'Poppins-Bold';}
	.st2{font-size:90px;}
</style>
<g>
	<path class="st0" d="M395.65,587.16L395.65,587.16c-12.08,0-23.07,4.63-31.31,12.21c-8.24-7.58-19.23-12.21-31.31-12.21h0
		c-25.55,0-46.25,20.71-46.25,46.25v23.55h30.73v-24.05c0-8.3,6.73-15.02,15.02-15.02h1c8.3,0,15.02,6.73,15.02,15.02v24.05h0.85
		h29.89h0.85v-24.05c0-8.3,6.73-15.02,15.02-15.02h1c8.3,0,15.02,6.73,15.02,15.02v24.05h30.73v-23.55
		C441.91,607.87,421.2,587.16,395.65,587.16z"/>
	<path class="st0" d="M348.82,656.96h-31.34v24.45c0,8.65,7.02,15.67,15.67,15.67h0c8.65,0,15.67-7.02,15.67-15.67V656.96z"/>
	<path class="st0" d="M411.16,656.96h-31.34v24.45c0,8.65,7.02,15.67,15.67,15.67h0c8.65,0,15.67-7.02,15.67-15.67V656.96z"/>
</g>
<text transform="matrix(1 0 0 1 469.7184 680.2421)" class="st0 st1 st2">MedGet</text>
</svg>
